<?xml version="1.0" encoding="UTF-8" standalone="no"?>
<svg
   xmlns:dc="http://purl.org/dc/elements/1.1/"
   xmlns:cc="http://creativecommons.org/ns#"
   xmlns:rdf="http://www.w3.org/1999/02/22-rdf-syntax-ns#"
   xmlns:svg="http://www.w3.org/2000/svg"
   xmlns="http://www.w3.org/2000/svg"
   id="svg911"
   preserveAspectRatio="xMidYMid meet"
   viewBox="0 0 5789.0784 1212.151"
   height="121.2151"
   width="578.90784"
   version="1.0">
  <metadata
     id="metadata917">
    <rdf:RDF>
      <cc:Work
         rdf:about="">
        <dc:format>image/svg+xml</dc:format>
        <dc:type
           rdf:resource="http://purl.org/dc/dcmitype/StillImage" />
        <dc:title></dc:title>
      </cc:Work>
    </rdf:RDF>
  </metadata>
  <defs
     id="defs915" />
  <g
     transform="translate(-55,-65)"
     stroke="none"
     fill="#ffffff"
     id="layer102">
    <path
       id="path902"
       d="M 510,1266 C 410,1237 326,1168 296,1089 283,1054 269,1039 234,1020 173,988 106,911 78,842 60,795 56,765 55,670 c 0,-97 4,-125 24,-177 29,-78 90,-149 154,-178 39,-18 52,-32 73,-73 31,-63 89,-116 163,-151 52,-24 66,-26 186,-26 111,1 138,4 187,23 75,30 152,100 174,157 14,37 25,49 60,64 54,24 127,99 159,161 52,103 53,292 1,405 -31,68 -107,143 -160,157 -36,10 -45,17 -60,54 -22,54 -103,128 -176,163 -48,22 -70,26 -170,28 -72,1 -132,-3 -160,-11 z m 331,-30 c 61,-29 118,-80 158,-140 22,-34 26,-50 26,-120 0,-64 -5,-89 -22,-121 C 976,804 911,742 837,695 l -59,-37 75,-49 C 976,528 1021,458 1021,346 1021,268 1005,227 953,175 878,97 773,65 621,72 504,78 433,108 364,182 c -57,61 -76,107 -77,183 -1,107 51,189 168,265 36,23 65,46 65,50 0,3 -25,24 -55,45 -75,51 -148,134 -163,182 -17,56 -15,136 3,181 20,47 78,108 130,134 78,41 115,48 235,45 100,-3 122,-7 171,-31 z M 325,842 c 17,-26 62,-71 100,-100 39,-30 71,-57 73,-62 1,-4 -20,-22 -47,-40 -56,-35 -151,-134 -151,-156 0,-46 -111,25 -141,89 -23,52 -25,144 -3,195 24,58 90,120 129,121 6,0 24,-21 40,-47 z m 772,5 c 115,-77 122,-269 13,-361 -47,-39 -80,-44 -99,-15 -32,48 -95,110 -152,148 l -59,39 69,46 c 76,51 121,96 142,145 16,35 31,34 86,-2 z" />
    <path
       id="path904"
       d="M 598,1196 C 507,1171 455,1116 438,1024 420,924 463,827 556,760 l 47,-33 71,36 c 158,80 221,156 214,259 -3,45 -11,66 -34,95 -34,43 -105,84 -144,82 -23,-1 -23,-2 5,-8 70,-17 133,-67 156,-123 12,-29 11,-32 -12,-47 -46,-30 -107,-92 -145,-146 -20,-30 -39,-55 -40,-55 -2,0 -21,26 -43,58 -43,64 -103,122 -150,147 -37,19 -37,20 -8,67 32,53 72,80 146,99 36,10 57,17 46,17 -11,1 -41,-5 -67,-12 z" />
    <path
       id="path906"
       d="M 627,573 C 550,532 467,462 445,420 c -8,-15 -17,-46 -21,-69 -6,-36 -4,-41 13,-41 41,0 139,92 188,178 11,17 22,32 26,32 4,0 18,-19 32,-42 36,-62 100,-131 141,-153 20,-11 36,-23 36,-28 0,-4 -9,-26 -20,-47 -25,-49 -80,-87 -143,-99 -61,-11 -72,-21 -15,-14 182,24 258,226 142,379 -30,39 -99,94 -118,94 -6,0 -42,-17 -79,-37 z" />
    <path
       id="path908"
       d="m 431,286 c -3,-54 108,-147 174,-145 29,1 29,1 -5,8 -73,15 -144,74 -162,133 -5,19 -6,20 -7,4 z" />
  </g>
  <g
     transform="translate(-55,-65)"
     style="display:inline"
     id="layer2">
    <g
       style="fill:#ffff00;fill-opacity:1"
       transform="rotate(90,674.11582,687.9237)"
       id="layer101-6"
       fill="#000000"
       stroke="none">
      <path
         style="fill:#ffff00;fill-opacity:1"
         d="m 515,1257 c -101,-34 -180,-97 -210,-169 -18,-45 -20,-125 -3,-181 15,-48 88,-131 163,-182 30,-21 55,-42 55,-45 0,-4 -29,-27 -65,-50 C 338,554 286,472 287,365 288,289 307,243 364,182 433,108 504,78 621,72 c 152,-7 257,25 332,103 52,52 68,93 68,171 0,112 -45,182 -168,263 l -75,49 59,37 c 74,47 139,109 166,160 17,32 22,57 22,121 0,70 -4,86 -26,120 -40,60 -97,111 -158,140 -49,24 -71,28 -171,31 -77,2 -128,-2 -155,-10 z m 264,-80 c 68,-33 104,-85 109,-155 7,-103 -56,-179 -214,-259 l -71,-36 -47,33 c -93,67 -136,164 -118,264 29,154 190,226 341,153 z M 756,582 C 885,488 919,317 828,214 780,160 729,138 649,138 497,138 396,251 430,382 c 15,57 102,141 195,190 39,21 75,38 81,38 6,0 29,-13 50,-28 z"
         id="path899-0" />
    </g>
  </g>
  <g
     transform="translate(-55,-65)"
     style="display:inline"
     id="layer1">
    <g
       style="fill:#0000ff"
       stroke="none"
       fill="#000000"
       id="layer101">
      <path
         style="fill:#0000ff"
         id="path899"
         d="m 515,1257 c -101,-34 -180,-97 -210,-169 -18,-45 -20,-125 -3,-181 15,-48 88,-131 163,-182 30,-21 55,-42 55,-45 0,-4 -29,-27 -65,-50 C 338,554 286,472 287,365 288,289 307,243 364,182 433,108 504,78 621,72 c 152,-7 257,25 332,103 52,52 68,93 68,171 0,112 -45,182 -168,263 l -75,49 59,37 c 74,47 139,109 166,160 17,32 22,57 22,121 0,70 -4,86 -26,120 -40,60 -97,111 -158,140 -49,24 -71,28 -171,31 -77,2 -128,-2 -155,-10 z m 264,-80 c 68,-33 104,-85 109,-155 7,-103 -56,-179 -214,-259 l -71,-36 -47,33 c -93,67 -136,164 -118,264 29,154 190,226 341,153 z M 756,582 C 885,488 919,317 828,214 780,160 729,138 649,138 497,138 396,251 430,382 c 15,57 102,141 195,190 39,21 75,38 81,38 6,0 29,-13 50,-28 z" />
    </g>
  </g>
  <text
     id="text216"
     y="378.63522"
     x="5816.4224"
     style="font-style:normal;font-weight:normal;font-size:400px;line-height:1.25;font-family:sans-serif;fill:#000000;fill-opacity:1;stroke:none;stroke-width:10"
     xml:space="preserve"><tspan
       style="text-align:end;text-anchor:end;stroke-width:10"
       y="378.63522"
       x="5816.4224"
       id="tspan214">Big-8 Management Board</tspan><tspan
       id="tspan218"
       style="text-align:end;text-anchor:end;stroke-width:10"
       y="878.63525"
       x="5816.4224">big8.org</tspan></text>
</svg>
