<?xml version="1.0" encoding="UTF-8" standalone="no"?>
<svg
   xmlns:dc="http://purl.org/dc/elements/1.1/"
   xmlns:cc="http://creativecommons.org/ns#"
   xmlns:rdf="http://www.w3.org/1999/02/22-rdf-syntax-ns#"
   xmlns:svg="http://www.w3.org/2000/svg"
   xmlns="http://www.w3.org/2000/svg"
   version="1.0"
   width="558.58344"
   height="121.2151"
   viewBox="0 0 5585.8344 1212.151"
   preserveAspectRatio="xMidYMid meet"
   id="svg911">
  <metadata
     id="metadata917">
    <rdf:RDF>
      <cc:Work
         rdf:about="">
        <dc:format>image/svg+xml</dc:format>
        <dc:type
           rdf:resource="http://purl.org/dc/dcmitype/StillImage" />
        <dc:title></dc:title>
      </cc:Work>
    </rdf:RDF>
  </metadata>
  <defs
     id="defs915">
    <filter
       id="filter849"
       style="color-interpolation-filters:sRGB"
       x="-0.25"
       y="-0.25"
       width="1.5"
       height="1.5">
      <feBlend
         id="feBlend827"
         mode="screen"
         result="result1"
         in2="SourceGraphic" />
      <feGaussianBlur
         id="feGaussianBlur829"
         result="result6"
         stdDeviation="7" />
      <feComposite
         id="feComposite831"
         result="result7"
         in2="result6"
         in="result6"
         operator="xor" />
      <feComposite
         id="feComposite833"
         result="result92"
         in="result6"
         operator="atop"
         in2="result1" />
      <feComposite
         id="feComposite835"
         in2="result92"
         operator="xor"
         in="result7"
         result="result4" />
      <feGaussianBlur
         id="feGaussianBlur837"
         in="result4"
         stdDeviation="0.7"
         result="result3" />
      <feSpecularLighting
         id="feSpecularLighting841"
         surfaceScale="4"
         specularConstant="1.5"
         specularExponent="50"
         result="result5">
        <fePointLight
           id="fePointLight839"
           x="-5000"
           y="-8000"
           z="20000" />
      </feSpecularLighting>
      <feComposite
         k4="0"
         k1="0"
         id="feComposite843"
         result="result93"
         in2="SourceGraphic"
         operator="arithmetic"
         k2="1"
         k3="1"
         in="result3" />
      <feComposite
         id="feComposite845"
         result="result94"
         in2="result93"
         operator="atop"
         in="result5" />
      <feBlend
         id="feBlend847"
         in2="result94"
         mode="multiply" />
    </filter>
    <filter
       id="filter873"
       style="color-interpolation-filters:sRGB"
       x="-0.25"
       y="-0.25"
       width="1.5"
       height="1.5">
      <feBlend
         id="feBlend851"
         mode="screen"
         result="result1"
         in2="SourceGraphic" />
      <feGaussianBlur
         id="feGaussianBlur853"
         result="result6"
         stdDeviation="7" />
      <feComposite
         id="feComposite855"
         result="result7"
         in2="result6"
         in="result6"
         operator="xor" />
      <feComposite
         id="feComposite857"
         result="result92"
         in="result6"
         operator="atop"
         in2="result1" />
      <feComposite
         id="feComposite859"
         in2="result92"
         operator="xor"
         in="result7"
         result="result4" />
      <feGaussianBlur
         id="feGaussianBlur861"
         in="result4"
         stdDeviation="0.7"
         result="result3" />
      <feSpecularLighting
         id="feSpecularLighting865"
         surfaceScale="4"
         specularConstant="1.5"
         specularExponent="50"
         result="result5">
        <fePointLight
           id="fePointLight863"
           x="-5000"
           y="-8000"
           z="20000" />
      </feSpecularLighting>
      <feComposite
         k4="0"
         k1="0"
         id="feComposite867"
         result="result93"
         in2="SourceGraphic"
         operator="arithmetic"
         k2="1"
         k3="1"
         in="result3" />
      <feComposite
         id="feComposite869"
         result="result94"
         in2="result93"
         operator="atop"
         in="result5" />
      <feBlend
         id="feBlend871"
         in2="result94"
         mode="multiply" />
    </filter>
    <filter
       x="-0.25"
       y="-0.25"
       width="1.5"
       height="1.5"
       style="color-interpolation-filters:sRGB;"
       id="filter92">
      <feGaussianBlur
         stdDeviation="1"
         result="result6"
         id="feGaussianBlur68" />
      <feComposite
         operator="in"
         in="result6"
         in2="result6"
         result="result7"
         id="feComposite70" />
      <feGaussianBlur
         stdDeviation="8"
         result="result3"
         in="result7"
         id="feGaussianBlur72" />
      <feComposite
         in2="result7"
         operator="over"
         result="result91"
         id="feComposite74" />
      <feComposite
         operator="in"
         in="result3"
         result="result5"
         in2="result91"
         id="feComposite76" />
      <feColorMatrix
         values="0 0 0 -1 0 0 0 0 -1 0 0 0 0 -1 0 0 0 0 1 0 "
         result="result4"
         id="feColorMatrix78" />
      <feSpecularLighting
         surfaceScale="3"
         specularConstant="2"
         specularExponent="45"
         in="result4"
         result="result11"
         id="feSpecularLighting82">
        <fePointLight
           x="-5000"
           y="-10000"
           z="20000"
           id="fePointLight80" />
      </feSpecularLighting>
      <feComposite
         operator="arithmetic"
         k1="1"
         in2="result4"
         result="result10"
         id="feComposite84" />
      <feComposite
         operator="arithmetic"
         k2="0.5"
         k3="1"
         in="result5"
         result="result8"
         in2="result10"
         id="feComposite86" />
      <feComposite
         result="result9"
         in2="result8"
         id="feComposite88" />
      <feBlend
         mode="normal"
         in2="result9"
         id="feBlend90" />
    </filter>
  </defs>
  <g
     transform="translate(-77,-65)"
     id="layer102"
     fill="#ffffff"
     stroke="none">
    <path
       d="M 510,1266 C 410,1237 326,1168 296,1089 283,1054 269,1039 234,1020 173,988 106,911 78,842 60,795 56,765 55,670 c 0,-97 4,-125 24,-177 29,-78 90,-149 154,-178 39,-18 52,-32 73,-73 31,-63 89,-116 163,-151 52,-24 66,-26 186,-26 111,1 138,4 187,23 75,30 152,100 174,157 14,37 25,49 60,64 54,24 127,99 159,161 52,103 53,292 1,405 -31,68 -107,143 -160,157 -36,10 -45,17 -60,54 -22,54 -103,128 -176,163 -48,22 -70,26 -170,28 -72,1 -132,-3 -160,-11 z m 331,-30 c 61,-29 118,-80 158,-140 22,-34 26,-50 26,-120 0,-64 -5,-89 -22,-121 C 976,804 911,742 837,695 l -59,-37 75,-49 C 976,528 1021,458 1021,346 1021,268 1005,227 953,175 878,97 773,65 621,72 504,78 433,108 364,182 c -57,61 -76,107 -77,183 -1,107 51,189 168,265 36,23 65,46 65,50 0,3 -25,24 -55,45 -75,51 -148,134 -163,182 -17,56 -15,136 3,181 20,47 78,108 130,134 78,41 115,48 235,45 100,-3 122,-7 171,-31 z M 325,842 c 17,-26 62,-71 100,-100 39,-30 71,-57 73,-62 1,-4 -20,-22 -47,-40 -56,-35 -151,-134 -151,-156 0,-46 -111,25 -141,89 -23,52 -25,144 -3,195 24,58 90,120 129,121 6,0 24,-21 40,-47 z m 772,5 c 115,-77 122,-269 13,-361 -47,-39 -80,-44 -99,-15 -32,48 -95,110 -152,148 l -59,39 69,46 c 76,51 121,96 142,145 16,35 31,34 86,-2 z"
       id="path902" />
    <path
       d="M 598,1196 C 507,1171 455,1116 438,1024 420,924 463,827 556,760 l 47,-33 71,36 c 158,80 221,156 214,259 -3,45 -11,66 -34,95 -34,43 -105,84 -144,82 -23,-1 -23,-2 5,-8 70,-17 133,-67 156,-123 12,-29 11,-32 -12,-47 -46,-30 -107,-92 -145,-146 -20,-30 -39,-55 -40,-55 -2,0 -21,26 -43,58 -43,64 -103,122 -150,147 -37,19 -37,20 -8,67 32,53 72,80 146,99 36,10 57,17 46,17 -11,1 -41,-5 -67,-12 z"
       id="path904" />
    <path
       d="M 627,573 C 550,532 467,462 445,420 c -8,-15 -17,-46 -21,-69 -6,-36 -4,-41 13,-41 41,0 139,92 188,178 11,17 22,32 26,32 4,0 18,-19 32,-42 36,-62 100,-131 141,-153 20,-11 36,-23 36,-28 0,-4 -9,-26 -20,-47 -25,-49 -80,-87 -143,-99 -61,-11 -72,-21 -15,-14 182,24 258,226 142,379 -30,39 -99,94 -118,94 -6,0 -42,-17 -79,-37 z"
       id="path906" />
    <path
       d="m 431,286 c -3,-54 108,-147 174,-145 29,1 29,1 -5,8 -73,15 -144,74 -162,133 -5,19 -6,20 -7,4 z"
       id="path908" />
  </g>
  <g
     transform="translate(-55,-65)"
     id="layer2"
     style="display:inline">
    <g
       stroke="none"
       fill="#000000"
       id="layer101-6"
       transform="rotate(90,674.11582,687.9237)"
       style="fill:#ffff00;fill-opacity:1;filter:url(#filter873)">
      <path
         id="path899-0"
         d="m 515,1257 c -101,-34 -180,-97 -210,-169 -18,-45 -20,-125 -3,-181 15,-48 88,-131 163,-182 30,-21 55,-42 55,-45 0,-4 -29,-27 -65,-50 C 338,554 286,472 287,365 288,289 307,243 364,182 433,108 504,78 621,72 c 152,-7 257,25 332,103 52,52 68,93 68,171 0,112 -45,182 -168,263 l -75,49 59,37 c 74,47 139,109 166,160 17,32 22,57 22,121 0,70 -4,86 -26,120 -40,60 -97,111 -158,140 -49,24 -71,28 -171,31 -77,2 -128,-2 -155,-10 z m 264,-80 c 68,-33 104,-85 109,-155 7,-103 -56,-179 -214,-259 l -71,-36 -47,33 c -93,67 -136,164 -118,264 29,154 190,226 341,153 z M 756,582 C 885,488 919,317 828,214 780,160 729,138 649,138 497,138 396,251 430,382 c 15,57 102,141 195,190 39,21 75,38 81,38 6,0 29,-13 50,-28 z"
         style="fill:#ffff00;fill-opacity:1" />
    </g>
    <text
       id="text19"
       y="557.31451"
       x="5608.2539"
       style="font-style:normal;font-weight:normal;font-size:400px;line-height:0.95;font-family:sans-serif;letter-spacing:-28px;word-spacing:-118.1px;fill:#000000;fill-opacity:1;stroke:none;stroke-width:10;filter:url(#filter92)"
       xml:space="preserve"><tspan
         style="font-style:normal;font-variant:normal;font-weight:normal;font-stretch:normal;font-family:'Droid Sans Mono';-inkscape-font-specification:'Droid Sans Mono';text-align:end;text-anchor:end;stroke-width:10"
         y="557.31451"
         x="5608.2539"
         id="tspan17">Big 8 Management Board</tspan><tspan
         id="tspan21"
         style="font-style:normal;font-variant:normal;font-weight:normal;font-stretch:normal;font-family:'Droid Sans Mono';-inkscape-font-specification:'Droid Sans Mono';text-align:end;text-anchor:end;stroke-width:10"
         y="950.70312"
         x="5580.2539">big8.org</tspan></text>
  </g>
  <g
     transform="translate(-55,-65)"
     id="layer1"
     style="display:inline">
    <g
       id="layer101"
       fill="#000000"
       stroke="none"
       style="fill:#0000ff;filter:url(#filter849)">
      <path
         d="m 515,1257 c -101,-34 -180,-97 -210,-169 -18,-45 -20,-125 -3,-181 15,-48 88,-131 163,-182 30,-21 55,-42 55,-45 0,-4 -29,-27 -65,-50 C 338,554 286,472 287,365 288,289 307,243 364,182 433,108 504,78 621,72 c 152,-7 257,25 332,103 52,52 68,93 68,171 0,112 -45,182 -168,263 l -75,49 59,37 c 74,47 139,109 166,160 17,32 22,57 22,121 0,70 -4,86 -26,120 -40,60 -97,111 -158,140 -49,24 -71,28 -171,31 -77,2 -128,-2 -155,-10 z m 264,-80 c 68,-33 104,-85 109,-155 7,-103 -56,-179 -214,-259 l -71,-36 -47,33 c -93,67 -136,164 -118,264 29,154 190,226 341,153 z M 756,582 C 885,488 919,317 828,214 780,160 729,138 649,138 497,138 396,251 430,382 c 15,57 102,141 195,190 39,21 75,38 81,38 6,0 29,-13 50,-28 z"
         id="path899"
         style="fill:#0000ff" />
    </g>
  </g>
</svg>
